<svg width="31" height="30" viewBox="0 0 31 30" fill="none" xmlns="http://www.w3.org/2000/svg">
<rect x="0.5" width="30" height="30" rx="15" fill="#EAEAFF"/>
<path d="M18.4154 13.8333V12.6667C18.4154 11.0558 17.1095 9.75 15.4987 9.75C13.8879 9.75 12.582 11.0558 12.582 12.6667V13.8333M15.4987 16.4583V17.625M13.632 20.25H17.3654C18.3455 20.25 18.8355 20.25 19.2098 20.0593C19.5391 19.8915 19.8068 19.6238 19.9746 19.2945C20.1654 18.9201 20.1654 18.4301 20.1654 17.45V16.6333C20.1654 15.6532 20.1654 15.1632 19.9746 14.7888C19.8068 14.4596 19.5391 14.1919 19.2098 14.0241C18.8355 13.8333 18.3455 13.8333 17.3654 13.8333H13.632C12.6519 13.8333 12.1619 13.8333 11.7875 14.0241C11.4583 14.1919 11.1905 14.4596 11.0228 14.7888C10.832 15.1632 10.832 15.6532 10.832 16.6333V17.45C10.832 18.4301 10.832 18.9201 11.0228 19.2945C11.1905 19.6238 11.4583 19.8915 11.7875 20.0593C12.1619 20.25 12.6519 20.25 13.632 20.25Z" stroke="#6764A1" stroke-width="1.5" stroke-linecap="round" stroke-linejoin="round"/>
</svg>
