<svg width="32" height="32" viewBox="0 0 32 32" fill="none" xmlns="http://www.w3.org/2000/svg">
<path d="M24 1H2C1.73478 1 1.48043 1.10536 1.29289 1.29289C1.10536 1.48043 1 1.73478 1 2V18.5C1 18.7652 1.10536 19.0196 1.29289 19.2071C1.48043 19.3946 1.73478 19.5 2 19.5H8.56V24C8.56053 24.1885 8.61433 24.373 8.71518 24.5322C8.81603 24.6915 8.95983 24.819 9.13 24.9C9.3 24.9821 9.48976 25.0144 9.67734 24.9931C9.86492 24.9719 10.0427 24.898 10.19 24.78L16.79 19.5H24C24.2652 19.5 24.5196 19.3946 24.7071 19.2071C24.8946 19.0196 25 18.7652 25 18.5V2C25 1.73478 24.8946 1.48043 24.7071 1.29289C24.5196 1.10536 24.2652 1 24 1ZM23 17.5H16.44C16.211 17.499 15.9886 17.5767 15.81 17.72L10.56 21.92V18.5C10.56 18.2348 10.4546 17.9804 10.2671 17.7929C10.0796 17.6054 9.82522 17.5 9.56 17.5H3V3H23V17.5Z" fill="#061938"/>
<path d="M10 9.60156C10.2652 9.60156 10.5196 9.49621 10.7071 9.30867C10.8946 9.12113 11 8.86678 11 8.60156V7.60156C11 7.07113 11.2107 6.56242 11.5858 6.18735C11.9609 5.81228 12.4696 5.60156 13 5.60156C13.5304 5.60156 14.0391 5.81228 14.4142 6.18735C14.7893 6.56242 15 7.07113 15 7.60156V7.75156C14.9979 8.12195 14.8931 8.48448 14.6971 8.79877C14.5011 9.11306 14.2217 9.36674 13.89 9.53156L13.55 9.71156C13.3851 9.79466 13.2464 9.9218 13.1493 10.0789C13.0522 10.236 13.0006 10.4169 13 10.6016V11.2716C13 11.5368 13.1054 11.7911 13.2929 11.9787C13.4804 12.1662 13.7348 12.2716 14 12.2716C14.2652 12.2716 14.5196 12.1662 14.7071 11.9787C14.8946 11.7911 15 11.5368 15 11.2716V11.2116C15.6075 10.8608 16.112 10.3565 16.4631 9.74924C16.8141 9.14194 16.9993 8.45301 17 7.75156V7.60156C17 6.5407 16.5786 5.52328 15.8284 4.77314C15.0783 4.02299 14.0609 3.60156 13 3.60156C11.9391 3.60156 10.9217 4.02299 10.1716 4.77314C9.42143 5.52328 9 6.5407 9 7.60156V8.60156C9 8.86678 9.10536 9.12113 9.29289 9.30867C9.48043 9.49621 9.73478 9.60156 10 9.60156Z" fill="#061938"/>
<path d="M14 13.1016C13.7348 13.1016 13.4804 13.2069 13.2929 13.3945C13.1054 13.582 13 13.8363 13 14.1016V14.6016C13 14.8668 13.1054 15.1211 13.2929 15.3087C13.4804 15.4962 13.7348 15.6016 14 15.6016C14.2652 15.6016 14.5196 15.4962 14.7071 15.3087C14.8946 15.1211 15 14.8668 15 14.6016V14.1016C15 13.8363 14.8946 13.582 14.7071 13.3945C14.5196 13.2069 14.2652 13.1016 14 13.1016Z" fill="#061938"/>
<path d="M30 13H27V18.5C27 19.2956 26.6839 20.0587 26.1213 20.6213C25.5587 21.1839 24.7956 21.5 24 21.5H17.49L13 25.09V26C13 26.2652 13.1054 26.5196 13.2929 26.7071C13.4804 26.8946 13.7348 27 14 27H19.15L23.88 30.78C24.0559 30.9212 24.2744 30.9987 24.5 31C24.6494 31.0025 24.797 30.9681 24.93 30.9C25.1002 30.819 25.244 30.6915 25.3448 30.5322C25.4457 30.373 25.4995 30.1885 25.5 30V27H30C30.2652 27 30.5196 26.8946 30.7071 26.7071C30.8946 26.5196 31 26.2652 31 26V14C31 13.7348 30.8946 13.4804 30.7071 13.2929C30.5196 13.1054 30.2652 13 30 13ZM20.25 25.25H19.75C19.4848 25.25 19.2304 25.1446 19.0429 24.9571C18.8554 24.7696 18.75 24.5152 18.75 24.25C18.75 23.9848 18.8554 23.7304 19.0429 23.5429C19.2304 23.3554 19.4848 23.25 19.75 23.25H20.25C20.5152 23.25 20.7696 23.3554 20.9571 23.5429C21.1446 23.7304 21.25 23.9848 21.25 24.25C21.25 24.5152 21.1446 24.7696 20.9571 24.9571C20.7696 25.1446 20.5152 25.25 20.25 25.25ZM24.25 25.25H23.75C23.4848 25.25 23.2304 25.1446 23.0429 24.9571C22.8554 24.7696 22.75 24.5152 22.75 24.25C22.75 23.9848 22.8554 23.7304 23.0429 23.5429C23.2304 23.3554 23.4848 23.25 23.75 23.25H24.25C24.5152 23.25 24.7696 23.3554 24.9571 23.5429C25.1446 23.7304 25.25 23.9848 25.25 24.25C25.25 24.5152 25.1446 24.7696 24.9571 24.9571C24.7696 25.1446 24.5152 25.25 24.25 25.25ZM28.25 25.25H27.75C27.4848 25.25 27.2304 25.1446 27.0429 24.9571C26.8554 24.7696 26.75 24.5152 26.75 24.25C26.75 23.9848 26.8554 23.7304 27.0429 23.5429C27.2304 23.3554 27.4848 23.25 27.75 23.25H28.25C28.5152 23.25 28.7696 23.3554 28.9571 23.5429C29.1446 23.7304 29.25 23.9848 29.25 24.25C29.25 24.5152 29.1446 24.7696 28.9571 24.9571C28.7696 25.1446 28.5152 25.25 28.25 25.25Z" fill="#6764A1"/>
</svg>
